<mxfile host="app.diagrams.net" agent="Mozilla/5.0 (Windows NT 10.0; Win64; x64) AppleWebKit/537.36 (KHTML, like Gecko) Chrome/134.0.0.0 Safari/537.36" version="26.0.16">
  <diagram name="Page-1" id="0783ab3e-0a74-02c8-0abd-f7b4e66b4bec">
    <mxGraphModel dx="1912" dy="995" grid="1" gridSize="10" guides="1" tooltips="1" connect="1" arrows="1" fold="1" page="1" pageScale="1" pageWidth="1654" pageHeight="2336" background="none" math="0" shadow="0">
      <root>
        <mxCell id="0" />
        <mxCell id="1" parent="0" />
        <mxCell id="1c1d494c118603dd-1" value="&lt;font style=&quot;font-size: 15px;&quot;&gt;ChefMate&lt;/font&gt;" style="swimlane;html=1;childLayout=stackLayout;startSize=40;rounded=1;shadow=0;comic=0;labelBackgroundColor=none;strokeWidth=1;fontFamily=Verdana;fontSize=12;align=center;fillColor=#fad9d5;strokeColor=#ae4132;" parent="1" vertex="1">
          <mxGeometry x="130" y="180" width="3830" height="1000" as="geometry" />
        </mxCell>
        <mxCell id="1c1d494c118603dd-2" value="&lt;font style=&quot;font-size: 15px;&quot;&gt;User Activation and Ingredient Detection&lt;/font&gt;" style="swimlane;html=1;startSize=30;fillColor=#cce5ff;strokeColor=#36393d;rounded=1;" parent="1c1d494c118603dd-1" vertex="1">
          <mxGeometry y="40" width="710" height="960" as="geometry">
            <mxRectangle y="20" width="40" height="610" as="alternateBounds" />
          </mxGeometry>
        </mxCell>
        <mxCell id="G6ERgnJ3noraj0WCy2LJ-16" style="edgeStyle=orthogonalEdgeStyle;rounded=0;orthogonalLoop=1;jettySize=auto;html=1;exitX=0.5;exitY=1;exitDx=0;exitDy=0;" parent="1c1d494c118603dd-2" source="G6ERgnJ3noraj0WCy2LJ-4" target="G6ERgnJ3noraj0WCy2LJ-15" edge="1">
          <mxGeometry relative="1" as="geometry" />
        </mxCell>
        <mxCell id="G6ERgnJ3noraj0WCy2LJ-4" value="VA Listening" style="whiteSpace=wrap;html=1;fillColor=#ffe6cc;strokeColor=#d79b00;rounded=1;" parent="1c1d494c118603dd-2" vertex="1">
          <mxGeometry x="85" y="90" width="120" height="60" as="geometry" />
        </mxCell>
        <mxCell id="G6ERgnJ3noraj0WCy2LJ-19" style="edgeStyle=orthogonalEdgeStyle;rounded=0;orthogonalLoop=1;jettySize=auto;html=1;" parent="1c1d494c118603dd-2" source="G6ERgnJ3noraj0WCy2LJ-7" target="G6ERgnJ3noraj0WCy2LJ-18" edge="1">
          <mxGeometry relative="1" as="geometry" />
        </mxCell>
        <mxCell id="G6ERgnJ3noraj0WCy2LJ-7" value="&quot;Hey ChefMate&quot;" style="html=1;whiteSpace=wrap;aspect=fixed;shape=isoRectangle;" parent="1c1d494c118603dd-2" vertex="1">
          <mxGeometry x="285" y="75" width="150" height="90" as="geometry" />
        </mxCell>
        <mxCell id="G6ERgnJ3noraj0WCy2LJ-10" style="edgeStyle=orthogonalEdgeStyle;rounded=0;orthogonalLoop=1;jettySize=auto;html=1;exitX=1;exitY=0.5;exitDx=0;exitDy=0;entryX=0.012;entryY=0.498;entryDx=0;entryDy=0;entryPerimeter=0;" parent="1c1d494c118603dd-2" source="G6ERgnJ3noraj0WCy2LJ-4" target="G6ERgnJ3noraj0WCy2LJ-7" edge="1">
          <mxGeometry relative="1" as="geometry" />
        </mxCell>
        <mxCell id="G6ERgnJ3noraj0WCy2LJ-14" value="" style="endArrow=classic;html=1;rounded=0;entryX=0.5;entryY=0;entryDx=0;entryDy=0;" parent="1c1d494c118603dd-2" target="G6ERgnJ3noraj0WCy2LJ-4" edge="1">
          <mxGeometry width="50" height="50" relative="1" as="geometry">
            <mxPoint x="360" y="78" as="sourcePoint" />
            <mxPoint x="615" y="210" as="targetPoint" />
            <Array as="points">
              <mxPoint x="360" y="60" />
              <mxPoint x="145" y="60" />
            </Array>
          </mxGeometry>
        </mxCell>
        <mxCell id="G6ERgnJ3noraj0WCy2LJ-20" style="edgeStyle=orthogonalEdgeStyle;rounded=0;orthogonalLoop=1;jettySize=auto;html=1;" parent="1c1d494c118603dd-2" source="G6ERgnJ3noraj0WCy2LJ-15" target="G6ERgnJ3noraj0WCy2LJ-17" edge="1">
          <mxGeometry relative="1" as="geometry" />
        </mxCell>
        <mxCell id="G6ERgnJ3noraj0WCy2LJ-15" value="&quot;Turn off ChefMate&quot;" style="html=1;whiteSpace=wrap;aspect=fixed;shape=isoRectangle;" parent="1c1d494c118603dd-2" vertex="1">
          <mxGeometry x="70" y="200" width="150" height="90" as="geometry" />
        </mxCell>
        <mxCell id="G6ERgnJ3noraj0WCy2LJ-21" style="edgeStyle=orthogonalEdgeStyle;rounded=0;orthogonalLoop=1;jettySize=auto;html=1;exitX=0;exitY=0.5;exitDx=0;exitDy=0;entryX=0;entryY=0.5;entryDx=0;entryDy=0;" parent="1c1d494c118603dd-2" source="G6ERgnJ3noraj0WCy2LJ-17" target="G6ERgnJ3noraj0WCy2LJ-4" edge="1">
          <mxGeometry relative="1" as="geometry">
            <Array as="points">
              <mxPoint x="50" y="370" />
              <mxPoint x="50" y="120" />
            </Array>
          </mxGeometry>
        </mxCell>
        <mxCell id="G6ERgnJ3noraj0WCy2LJ-17" value="Sign off" style="whiteSpace=wrap;html=1;fillColor=#cce5ff;strokeColor=#36393d;rounded=1;" parent="1c1d494c118603dd-2" vertex="1">
          <mxGeometry x="85" y="340" width="120" height="60" as="geometry" />
        </mxCell>
        <mxCell id="G6ERgnJ3noraj0WCy2LJ-23" style="edgeStyle=orthogonalEdgeStyle;rounded=0;orthogonalLoop=1;jettySize=auto;html=1;" parent="1c1d494c118603dd-2" source="G6ERgnJ3noraj0WCy2LJ-18" target="G6ERgnJ3noraj0WCy2LJ-24" edge="1">
          <mxGeometry relative="1" as="geometry">
            <mxPoint x="360" y="340" as="targetPoint" />
          </mxGeometry>
        </mxCell>
        <mxCell id="G6ERgnJ3noraj0WCy2LJ-18" value="Activate" style="whiteSpace=wrap;html=1;fillColor=#cce5ff;strokeColor=#36393d;rounded=1;" parent="1c1d494c118603dd-2" vertex="1">
          <mxGeometry x="300" y="215" width="120" height="60" as="geometry" />
        </mxCell>
        <mxCell id="G6ERgnJ3noraj0WCy2LJ-27" style="edgeStyle=orthogonalEdgeStyle;rounded=0;orthogonalLoop=1;jettySize=auto;html=1;" parent="1c1d494c118603dd-2" source="G6ERgnJ3noraj0WCy2LJ-24" target="G6ERgnJ3noraj0WCy2LJ-26" edge="1">
          <mxGeometry relative="1" as="geometry" />
        </mxCell>
        <mxCell id="G6ERgnJ3noraj0WCy2LJ-30" style="edgeStyle=orthogonalEdgeStyle;rounded=0;orthogonalLoop=1;jettySize=auto;html=1;entryX=1;entryY=0.5;entryDx=0;entryDy=0;" parent="1c1d494c118603dd-2" source="G6ERgnJ3noraj0WCy2LJ-24" target="G6ERgnJ3noraj0WCy2LJ-17" edge="1">
          <mxGeometry relative="1" as="geometry" />
        </mxCell>
        <mxCell id="G6ERgnJ3noraj0WCy2LJ-24" value="Meal Type?" style="html=1;whiteSpace=wrap;aspect=fixed;shape=isoRectangle;" parent="1c1d494c118603dd-2" vertex="1">
          <mxGeometry x="285" y="325" width="150" height="90" as="geometry" />
        </mxCell>
        <mxCell id="G6ERgnJ3noraj0WCy2LJ-25" value="Yes,&lt;br&gt;Very Spicy&lt;br&gt;Diary Free&lt;br&gt;Quick to Cook" style="text;html=1;align=left;verticalAlign=middle;resizable=0;points=[];autosize=1;strokeColor=none;fillColor=none;" parent="1c1d494c118603dd-2" vertex="1">
          <mxGeometry x="370" y="414" width="100" height="70" as="geometry" />
        </mxCell>
        <mxCell id="G6ERgnJ3noraj0WCy2LJ-29" style="edgeStyle=orthogonalEdgeStyle;rounded=0;orthogonalLoop=1;jettySize=auto;html=1;exitX=0.5;exitY=1;exitDx=0;exitDy=0;" parent="1c1d494c118603dd-2" source="G6ERgnJ3noraj0WCy2LJ-26" target="G6ERgnJ3noraj0WCy2LJ-28" edge="1">
          <mxGeometry relative="1" as="geometry" />
        </mxCell>
        <mxCell id="G6ERgnJ3noraj0WCy2LJ-26" value="Detect Intent" style="whiteSpace=wrap;html=1;fillColor=#ffe6cc;strokeColor=#d79b00;rounded=1;" parent="1c1d494c118603dd-2" vertex="1">
          <mxGeometry x="300" y="490" width="120" height="60" as="geometry" />
        </mxCell>
        <mxCell id="G6ERgnJ3noraj0WCy2LJ-37" style="edgeStyle=orthogonalEdgeStyle;rounded=0;orthogonalLoop=1;jettySize=auto;html=1;" parent="1c1d494c118603dd-2" source="G6ERgnJ3noraj0WCy2LJ-28" target="G6ERgnJ3noraj0WCy2LJ-36" edge="1">
          <mxGeometry relative="1" as="geometry" />
        </mxCell>
        <mxCell id="G6ERgnJ3noraj0WCy2LJ-28" value="Ingredients?" style="html=1;whiteSpace=wrap;aspect=fixed;shape=isoRectangle;" parent="1c1d494c118603dd-2" vertex="1">
          <mxGeometry x="285" y="590" width="150" height="90" as="geometry" />
        </mxCell>
        <mxCell id="G6ERgnJ3noraj0WCy2LJ-32" value="No" style="text;html=1;align=center;verticalAlign=middle;resizable=0;points=[];autosize=1;strokeColor=none;fillColor=none;" parent="1c1d494c118603dd-2" vertex="1">
          <mxGeometry x="230" y="60" width="40" height="30" as="geometry" />
        </mxCell>
        <mxCell id="G6ERgnJ3noraj0WCy2LJ-31" value="No" style="text;html=1;align=center;verticalAlign=middle;resizable=0;points=[];autosize=1;strokeColor=none;fillColor=none;" parent="1c1d494c118603dd-2" vertex="1">
          <mxGeometry x="230" y="338" width="40" height="30" as="geometry" />
        </mxCell>
        <mxCell id="G6ERgnJ3noraj0WCy2LJ-35" value="Yes" style="text;html=1;align=center;verticalAlign=middle;resizable=0;points=[];autosize=1;strokeColor=none;fillColor=none;" parent="1c1d494c118603dd-2" vertex="1">
          <mxGeometry x="460" y="605" width="40" height="30" as="geometry" />
        </mxCell>
        <mxCell id="G6ERgnJ3noraj0WCy2LJ-36" value="Checks Ingredients Inventory" style="whiteSpace=wrap;html=1;fillColor=#cce5ff;strokeColor=#36393d;rounded=1;" parent="1c1d494c118603dd-2" vertex="1">
          <mxGeometry x="85" y="605" width="120" height="60" as="geometry" />
        </mxCell>
        <mxCell id="G6ERgnJ3noraj0WCy2LJ-38" value="No" style="text;html=1;align=center;verticalAlign=middle;resizable=0;points=[];autosize=1;strokeColor=none;fillColor=none;" parent="1c1d494c118603dd-2" vertex="1">
          <mxGeometry x="230" y="605" width="40" height="30" as="geometry" />
        </mxCell>
        <mxCell id="G6ERgnJ3noraj0WCy2LJ-40" value="User takes an image of the ingredients" style="whiteSpace=wrap;html=1;fillColor=#dae8fc;strokeColor=#6c8ebf;rounded=1;" parent="1c1d494c118603dd-2" vertex="1">
          <mxGeometry x="505" y="460" width="150" height="60" as="geometry" />
        </mxCell>
        <mxCell id="JVq306A_YzXoWOVUy9Fq-34" value="Branches to another scenario" style="text;html=1;align=center;verticalAlign=middle;resizable=0;points=[];autosize=1;strokeColor=none;fillColor=none;" vertex="1" parent="1c1d494c118603dd-2">
          <mxGeometry x="55" y="665" width="180" height="30" as="geometry" />
        </mxCell>
        <mxCell id="1c1d494c118603dd-4" value="&lt;font style=&quot;font-size: 15px;&quot;&gt;Ingredient Analysis and Recipe Confirmation&lt;/font&gt;" style="swimlane;html=1;startSize=30;rounded=1;fillColor=#d0cee2;strokeColor=#56517e;" parent="1c1d494c118603dd-1" vertex="1">
          <mxGeometry x="710" y="40" width="640" height="960" as="geometry" />
        </mxCell>
        <mxCell id="G6ERgnJ3noraj0WCy2LJ-33" value="CheftMate activates the camera" style="whiteSpace=wrap;html=1;fillColor=#dae8fc;strokeColor=#6c8ebf;rounded=1;" parent="1c1d494c118603dd-4" vertex="1">
          <mxGeometry x="-190" y="605" width="120" height="60" as="geometry" />
        </mxCell>
        <mxCell id="G6ERgnJ3noraj0WCy2LJ-46" style="edgeStyle=orthogonalEdgeStyle;rounded=0;orthogonalLoop=1;jettySize=auto;html=1;" parent="1c1d494c118603dd-4" source="G6ERgnJ3noraj0WCy2LJ-43" target="G6ERgnJ3noraj0WCy2LJ-45" edge="1">
          <mxGeometry relative="1" as="geometry" />
        </mxCell>
        <mxCell id="G6ERgnJ3noraj0WCy2LJ-52" style="edgeStyle=orthogonalEdgeStyle;rounded=0;orthogonalLoop=1;jettySize=auto;html=1;entryX=0.5;entryY=0;entryDx=0;entryDy=0;" parent="1c1d494c118603dd-4" source="G6ERgnJ3noraj0WCy2LJ-45" target="G6ERgnJ3noraj0WCy2LJ-51" edge="1">
          <mxGeometry relative="1" as="geometry" />
        </mxCell>
        <mxCell id="G6ERgnJ3noraj0WCy2LJ-59" style="edgeStyle=orthogonalEdgeStyle;rounded=0;orthogonalLoop=1;jettySize=auto;html=1;entryX=0.995;entryY=0.494;entryDx=0;entryDy=0;entryPerimeter=0;" parent="1c1d494c118603dd-4" source="G6ERgnJ3noraj0WCy2LJ-45" target="G6ERgnJ3noraj0WCy2LJ-54" edge="1">
          <mxGeometry relative="1" as="geometry">
            <mxPoint x="310.00000000000045" y="520" as="targetPoint" />
            <Array as="points">
              <mxPoint x="310" y="225" />
              <mxPoint x="310" y="484" />
            </Array>
          </mxGeometry>
        </mxCell>
        <mxCell id="G6ERgnJ3noraj0WCy2LJ-64" style="edgeStyle=orthogonalEdgeStyle;rounded=0;orthogonalLoop=1;jettySize=auto;html=1;" parent="1c1d494c118603dd-4" source="G6ERgnJ3noraj0WCy2LJ-48" target="G6ERgnJ3noraj0WCy2LJ-63" edge="1">
          <mxGeometry relative="1" as="geometry" />
        </mxCell>
        <mxCell id="G6ERgnJ3noraj0WCy2LJ-55" style="edgeStyle=orthogonalEdgeStyle;rounded=0;orthogonalLoop=1;jettySize=auto;html=1;" parent="1c1d494c118603dd-4" source="G6ERgnJ3noraj0WCy2LJ-51" target="G6ERgnJ3noraj0WCy2LJ-54" edge="1">
          <mxGeometry relative="1" as="geometry" />
        </mxCell>
        <mxCell id="G6ERgnJ3noraj0WCy2LJ-61" style="edgeStyle=orthogonalEdgeStyle;rounded=0;orthogonalLoop=1;jettySize=auto;html=1;" parent="1c1d494c118603dd-4" source="G6ERgnJ3noraj0WCy2LJ-54" target="G6ERgnJ3noraj0WCy2LJ-48" edge="1">
          <mxGeometry relative="1" as="geometry" />
        </mxCell>
        <mxCell id="G6ERgnJ3noraj0WCy2LJ-65" style="edgeStyle=orthogonalEdgeStyle;rounded=0;orthogonalLoop=1;jettySize=auto;html=1;" parent="1c1d494c118603dd-4" source="G6ERgnJ3noraj0WCy2LJ-63" target="G6ERgnJ3noraj0WCy2LJ-62" edge="1">
          <mxGeometry relative="1" as="geometry" />
        </mxCell>
        <mxCell id="G6ERgnJ3noraj0WCy2LJ-67" style="edgeStyle=orthogonalEdgeStyle;rounded=0;orthogonalLoop=1;jettySize=auto;html=1;entryX=0.5;entryY=1;entryDx=0;entryDy=0;" parent="1c1d494c118603dd-4" source="G6ERgnJ3noraj0WCy2LJ-63" target="G6ERgnJ3noraj0WCy2LJ-48" edge="1">
          <mxGeometry relative="1" as="geometry">
            <Array as="points">
              <mxPoint x="345" y="675" />
              <mxPoint x="155" y="675" />
            </Array>
          </mxGeometry>
        </mxCell>
        <mxCell id="G6ERgnJ3noraj0WCy2LJ-43" value="Process Image" style="whiteSpace=wrap;html=1;fillColor=#d0cee2;strokeColor=#56517e;rounded=1;" parent="1c1d494c118603dd-4" vertex="1">
          <mxGeometry x="95" y="70" width="120" height="60" as="geometry" />
        </mxCell>
        <mxCell id="G6ERgnJ3noraj0WCy2LJ-45" value="Avg. Confidence&lt;br&gt;Score &amp;gt; Threshold?" style="html=1;whiteSpace=wrap;aspect=fixed;shape=isoRectangle;" parent="1c1d494c118603dd-4" vertex="1">
          <mxGeometry x="80" y="180" width="150" height="90" as="geometry" />
        </mxCell>
        <mxCell id="G6ERgnJ3noraj0WCy2LJ-48" value="Proceeds to search for recipes" style="whiteSpace=wrap;html=1;fillColor=#d0cee2;strokeColor=#56517e;rounded=1;" parent="1c1d494c118603dd-4" vertex="1">
          <mxGeometry x="95" y="580" width="120" height="60" as="geometry" />
        </mxCell>
        <mxCell id="G6ERgnJ3noraj0WCy2LJ-51" value="Confirms the list of ingredients" style="whiteSpace=wrap;html=1;fillColor=#d0cee2;strokeColor=#56517e;rounded=1;" parent="1c1d494c118603dd-4" vertex="1">
          <mxGeometry x="95" y="325" width="120" height="60" as="geometry" />
        </mxCell>
        <mxCell id="G6ERgnJ3noraj0WCy2LJ-53" value="No" style="text;html=1;align=center;verticalAlign=middle;resizable=0;points=[];autosize=1;strokeColor=none;fillColor=none;" parent="1c1d494c118603dd-4" vertex="1">
          <mxGeometry x="155" y="280" width="40" height="30" as="geometry" />
        </mxCell>
        <mxCell id="JVq306A_YzXoWOVUy9Fq-36" style="edgeStyle=orthogonalEdgeStyle;rounded=0;orthogonalLoop=1;jettySize=auto;html=1;entryX=0;entryY=0.5;entryDx=0;entryDy=0;" edge="1" parent="1c1d494c118603dd-4" source="G6ERgnJ3noraj0WCy2LJ-54" target="G6ERgnJ3noraj0WCy2LJ-51">
          <mxGeometry relative="1" as="geometry">
            <Array as="points">
              <mxPoint x="60" y="485" />
              <mxPoint x="60" y="355" />
            </Array>
          </mxGeometry>
        </mxCell>
        <mxCell id="G6ERgnJ3noraj0WCy2LJ-54" value="Confirmed?" style="html=1;whiteSpace=wrap;aspect=fixed;shape=isoRectangle;" parent="1c1d494c118603dd-4" vertex="1">
          <mxGeometry x="80" y="440" width="150" height="90" as="geometry" />
        </mxCell>
        <mxCell id="G6ERgnJ3noraj0WCy2LJ-62" value="Spicy Chickpea Stir-Fry with Noodles" style="whiteSpace=wrap;html=1;fillColor=#d0cee2;strokeColor=#56517e;rounded=1;" parent="1c1d494c118603dd-4" vertex="1">
          <mxGeometry x="480" y="580" width="120" height="60" as="geometry" />
        </mxCell>
        <mxCell id="G6ERgnJ3noraj0WCy2LJ-63" value="Agree?" style="html=1;whiteSpace=wrap;aspect=fixed;shape=isoRectangle;" parent="1c1d494c118603dd-4" vertex="1">
          <mxGeometry x="270" y="565" width="150" height="90" as="geometry" />
        </mxCell>
        <mxCell id="G6ERgnJ3noraj0WCy2LJ-66" value="Yes" style="text;html=1;align=center;verticalAlign=middle;resizable=0;points=[];autosize=1;strokeColor=none;fillColor=none;" parent="1c1d494c118603dd-4" vertex="1">
          <mxGeometry x="425" y="580" width="40" height="30" as="geometry" />
        </mxCell>
        <mxCell id="G6ERgnJ3noraj0WCy2LJ-60" value="Yes" style="text;html=1;align=center;verticalAlign=middle;resizable=0;points=[];autosize=1;strokeColor=none;fillColor=none;" parent="1c1d494c118603dd-4" vertex="1">
          <mxGeometry x="310" y="288" width="40" height="30" as="geometry" />
        </mxCell>
        <mxCell id="G6ERgnJ3noraj0WCy2LJ-68" value="No" style="text;html=1;align=center;verticalAlign=middle;resizable=0;points=[];autosize=1;strokeColor=none;fillColor=none;" parent="1c1d494c118603dd-4" vertex="1">
          <mxGeometry x="210" y="678" width="40" height="30" as="geometry" />
        </mxCell>
        <mxCell id="JVq306A_YzXoWOVUy9Fq-35" value="Yes" style="text;html=1;align=center;verticalAlign=middle;resizable=0;points=[];autosize=1;strokeColor=none;fillColor=none;" vertex="1" parent="1c1d494c118603dd-4">
          <mxGeometry x="155" y="535" width="40" height="30" as="geometry" />
        </mxCell>
        <mxCell id="JVq306A_YzXoWOVUy9Fq-37" value="No" style="text;html=1;align=center;verticalAlign=middle;resizable=0;points=[];autosize=1;strokeColor=none;fillColor=none;" vertex="1" parent="1c1d494c118603dd-4">
          <mxGeometry x="20" y="400" width="40" height="30" as="geometry" />
        </mxCell>
        <mxCell id="G6ERgnJ3noraj0WCy2LJ-34" style="edgeStyle=orthogonalEdgeStyle;rounded=0;orthogonalLoop=1;jettySize=auto;html=1;entryX=0;entryY=0.5;entryDx=0;entryDy=0;" parent="1c1d494c118603dd-1" source="G6ERgnJ3noraj0WCy2LJ-28" target="G6ERgnJ3noraj0WCy2LJ-33" edge="1">
          <mxGeometry relative="1" as="geometry" />
        </mxCell>
        <mxCell id="G6ERgnJ3noraj0WCy2LJ-41" style="edgeStyle=orthogonalEdgeStyle;rounded=0;orthogonalLoop=1;jettySize=auto;html=1;" parent="1c1d494c118603dd-1" source="G6ERgnJ3noraj0WCy2LJ-33" target="G6ERgnJ3noraj0WCy2LJ-40" edge="1">
          <mxGeometry relative="1" as="geometry">
            <mxPoint x="440" y="510" as="sourcePoint" />
          </mxGeometry>
        </mxCell>
        <mxCell id="G6ERgnJ3noraj0WCy2LJ-44" style="edgeStyle=orthogonalEdgeStyle;rounded=0;orthogonalLoop=1;jettySize=auto;html=1;entryX=0;entryY=0.5;entryDx=0;entryDy=0;exitX=0.5;exitY=0;exitDx=0;exitDy=0;" parent="1c1d494c118603dd-1" source="G6ERgnJ3noraj0WCy2LJ-40" target="G6ERgnJ3noraj0WCy2LJ-43" edge="1">
          <mxGeometry relative="1" as="geometry">
            <Array as="points">
              <mxPoint x="580" y="140" />
            </Array>
          </mxGeometry>
        </mxCell>
        <mxCell id="G6ERgnJ3noraj0WCy2LJ-70" style="edgeStyle=orthogonalEdgeStyle;rounded=0;orthogonalLoop=1;jettySize=auto;html=1;entryX=0;entryY=0.5;entryDx=0;entryDy=0;" parent="1c1d494c118603dd-1" source="G6ERgnJ3noraj0WCy2LJ-62" target="G6ERgnJ3noraj0WCy2LJ-69" edge="1">
          <mxGeometry relative="1" as="geometry">
            <Array as="points">
              <mxPoint x="1190" y="140" />
            </Array>
          </mxGeometry>
        </mxCell>
        <mxCell id="G6ERgnJ3noraj0WCy2LJ-173" style="edgeStyle=orthogonalEdgeStyle;rounded=0;orthogonalLoop=1;jettySize=auto;html=1;entryX=0.5;entryY=1;entryDx=0;entryDy=0;" parent="1c1d494c118603dd-1" source="G6ERgnJ3noraj0WCy2LJ-74" target="G6ERgnJ3noraj0WCy2LJ-172" edge="1">
          <mxGeometry relative="1" as="geometry">
            <Array as="points">
              <mxPoint x="1460" y="980" />
              <mxPoint x="3280" y="980" />
            </Array>
          </mxGeometry>
        </mxCell>
        <mxCell id="G6ERgnJ3noraj0WCy2LJ-1" value="&lt;font style=&quot;font-size: 15px;&quot;&gt;Real-time Cooking Setup and Automation&lt;/font&gt;" style="swimlane;html=1;startSize=30;rounded=1;fillColor=#bac8d3;strokeColor=#23445d;" parent="1c1d494c118603dd-1" vertex="1">
          <mxGeometry x="1350" y="40" width="1060" height="960" as="geometry" />
        </mxCell>
        <mxCell id="G6ERgnJ3noraj0WCy2LJ-73" style="edgeStyle=orthogonalEdgeStyle;rounded=0;orthogonalLoop=1;jettySize=auto;html=1;" parent="G6ERgnJ3noraj0WCy2LJ-1" source="G6ERgnJ3noraj0WCy2LJ-69" target="G6ERgnJ3noraj0WCy2LJ-74" edge="1">
          <mxGeometry relative="1" as="geometry">
            <mxPoint x="110" y="190" as="targetPoint" />
          </mxGeometry>
        </mxCell>
        <mxCell id="G6ERgnJ3noraj0WCy2LJ-69" value="ChefMate proceeds and automates any kitchen appliances" style="whiteSpace=wrap;html=1;fillColor=#bac8d3;strokeColor=#23445d;rounded=1;" parent="G6ERgnJ3noraj0WCy2LJ-1" vertex="1">
          <mxGeometry x="50" y="70" width="120" height="60" as="geometry" />
        </mxCell>
        <mxCell id="G6ERgnJ3noraj0WCy2LJ-74" value="ChefMate provides the step by step&lt;div&gt;instructions&lt;/div&gt;" style="whiteSpace=wrap;html=1;fillColor=#bac8d3;strokeColor=#23445d;rounded=1;" parent="G6ERgnJ3noraj0WCy2LJ-1" vertex="1">
          <mxGeometry x="50" y="200" width="120" height="60" as="geometry" />
        </mxCell>
        <mxCell id="G6ERgnJ3noraj0WCy2LJ-76" style="edgeStyle=orthogonalEdgeStyle;rounded=0;orthogonalLoop=1;jettySize=auto;html=1;entryX=1;entryY=0.75;entryDx=0;entryDy=0;" parent="G6ERgnJ3noraj0WCy2LJ-1" target="G6ERgnJ3noraj0WCy2LJ-74" edge="1">
          <mxGeometry relative="1" as="geometry">
            <mxPoint x="120" y="260" as="sourcePoint" />
            <mxPoint x="180" y="270" as="targetPoint" />
            <Array as="points">
              <mxPoint x="120" y="380" />
              <mxPoint x="230" y="380" />
              <mxPoint x="230" y="245" />
            </Array>
          </mxGeometry>
        </mxCell>
        <mxCell id="G6ERgnJ3noraj0WCy2LJ-84" value="" style="shape=flexArrow;endArrow=classic;html=1;rounded=0;" parent="G6ERgnJ3noraj0WCy2LJ-1" edge="1">
          <mxGeometry width="50" height="50" relative="1" as="geometry">
            <mxPoint x="196" y="224" as="sourcePoint" />
            <mxPoint x="352" y="224" as="targetPoint" />
          </mxGeometry>
        </mxCell>
        <mxCell id="G6ERgnJ3noraj0WCy2LJ-88" value="&lt;b&gt;Step 2&lt;/b&gt;" style="text;html=1;align=center;verticalAlign=middle;resizable=0;points=[];autosize=1;strokeColor=none;fillColor=none;" parent="G6ERgnJ3noraj0WCy2LJ-1" vertex="1">
          <mxGeometry x="580" y="70" width="60" height="30" as="geometry" />
        </mxCell>
        <mxCell id="G6ERgnJ3noraj0WCy2LJ-105" value="&lt;b&gt;Step X1&lt;/b&gt;" style="text;html=1;align=center;verticalAlign=middle;resizable=0;points=[];autosize=1;strokeColor=none;fillColor=none;" parent="G6ERgnJ3noraj0WCy2LJ-1" vertex="1">
          <mxGeometry x="570" y="510" width="70" height="30" as="geometry" />
        </mxCell>
        <mxCell id="G6ERgnJ3noraj0WCy2LJ-106" value="&lt;b&gt;Example&lt;/b&gt;" style="text;html=1;align=center;verticalAlign=middle;resizable=0;points=[];autosize=1;strokeColor=none;fillColor=none;" parent="G6ERgnJ3noraj0WCy2LJ-1" vertex="1">
          <mxGeometry x="237.5" y="190" width="70" height="30" as="geometry" />
        </mxCell>
        <mxCell id="G6ERgnJ3noraj0WCy2LJ-108" style="edgeStyle=orthogonalEdgeStyle;rounded=0;orthogonalLoop=1;jettySize=auto;html=1;exitX=0.5;exitY=0;exitDx=0;exitDy=0;entryX=0;entryY=0.5;entryDx=0;entryDy=0;" parent="G6ERgnJ3noraj0WCy2LJ-1" source="G6ERgnJ3noraj0WCy2LJ-107" target="G6ERgnJ3noraj0WCy2LJ-77" edge="1">
          <mxGeometry relative="1" as="geometry" />
        </mxCell>
        <mxCell id="G6ERgnJ3noraj0WCy2LJ-109" style="edgeStyle=orthogonalEdgeStyle;rounded=0;orthogonalLoop=1;jettySize=auto;html=1;entryX=0;entryY=0.5;entryDx=0;entryDy=0;exitX=0.5;exitY=1;exitDx=0;exitDy=0;" parent="G6ERgnJ3noraj0WCy2LJ-1" source="G6ERgnJ3noraj0WCy2LJ-107" edge="1">
          <mxGeometry relative="1" as="geometry">
            <mxPoint x="680.5" y="540" as="targetPoint" />
            <Array as="points">
              <mxPoint x="431" y="255" />
              <mxPoint x="430" y="540" />
            </Array>
            <mxPoint x="400" y="255" as="sourcePoint" />
          </mxGeometry>
        </mxCell>
        <mxCell id="JVq306A_YzXoWOVUy9Fq-27" style="edgeStyle=orthogonalEdgeStyle;rounded=0;orthogonalLoop=1;jettySize=auto;html=1;entryX=1;entryY=0.5;entryDx=0;entryDy=0;" edge="1" parent="G6ERgnJ3noraj0WCy2LJ-1" target="JVq306A_YzXoWOVUy9Fq-3">
          <mxGeometry relative="1" as="geometry">
            <mxPoint x="399.44736842105294" y="250" as="sourcePoint" />
            <mxPoint x="329.99999999999955" y="535" as="targetPoint" />
            <Array as="points">
              <mxPoint x="430" y="250" />
              <mxPoint x="430" y="540" />
            </Array>
          </mxGeometry>
        </mxCell>
        <mxCell id="G6ERgnJ3noraj0WCy2LJ-107" value="ChefMate Timer" style="whiteSpace=wrap;html=1;fillColor=#bac8d3;strokeColor=#23445d;rounded=1;" parent="G6ERgnJ3noraj0WCy2LJ-1" vertex="1">
          <mxGeometry x="370.5" y="190" width="120" height="60" as="geometry" />
        </mxCell>
        <mxCell id="G6ERgnJ3noraj0WCy2LJ-80" style="edgeStyle=orthogonalEdgeStyle;rounded=0;orthogonalLoop=1;jettySize=auto;html=1;" parent="G6ERgnJ3noraj0WCy2LJ-1" source="G6ERgnJ3noraj0WCy2LJ-77" target="G6ERgnJ3noraj0WCy2LJ-79" edge="1">
          <mxGeometry relative="1" as="geometry" />
        </mxCell>
        <mxCell id="G6ERgnJ3noraj0WCy2LJ-77" value="Boil Water" style="whiteSpace=wrap;html=1;fillColor=#bac8d3;strokeColor=#23445d;rounded=1;" parent="G6ERgnJ3noraj0WCy2LJ-1" vertex="1">
          <mxGeometry x="685" y="70" width="120" height="60" as="geometry" />
        </mxCell>
        <mxCell id="G6ERgnJ3noraj0WCy2LJ-82" style="edgeStyle=orthogonalEdgeStyle;rounded=0;orthogonalLoop=1;jettySize=auto;html=1;" parent="G6ERgnJ3noraj0WCy2LJ-1" source="G6ERgnJ3noraj0WCy2LJ-79" target="G6ERgnJ3noraj0WCy2LJ-81" edge="1">
          <mxGeometry relative="1" as="geometry" />
        </mxCell>
        <mxCell id="G6ERgnJ3noraj0WCy2LJ-86" style="edgeStyle=orthogonalEdgeStyle;rounded=0;orthogonalLoop=1;jettySize=auto;html=1;" parent="G6ERgnJ3noraj0WCy2LJ-1" source="G6ERgnJ3noraj0WCy2LJ-79" target="G6ERgnJ3noraj0WCy2LJ-85" edge="1">
          <mxGeometry relative="1" as="geometry" />
        </mxCell>
        <mxCell id="G6ERgnJ3noraj0WCy2LJ-79" value="Heat enough? (temperature)" style="html=1;whiteSpace=wrap;aspect=fixed;shape=isoRectangle;" parent="G6ERgnJ3noraj0WCy2LJ-1" vertex="1">
          <mxGeometry x="670" y="180" width="150" height="90" as="geometry" />
        </mxCell>
        <mxCell id="G6ERgnJ3noraj0WCy2LJ-81" value="Stove adjusting the temperature" style="whiteSpace=wrap;html=1;fillColor=#bac8d3;strokeColor=#23445d;rounded=1;" parent="G6ERgnJ3noraj0WCy2LJ-1" vertex="1">
          <mxGeometry x="895" y="195" width="120" height="60" as="geometry" />
        </mxCell>
        <mxCell id="G6ERgnJ3noraj0WCy2LJ-83" value="No" style="text;html=1;align=center;verticalAlign=middle;resizable=0;points=[];autosize=1;strokeColor=none;fillColor=none;" parent="G6ERgnJ3noraj0WCy2LJ-1" vertex="1">
          <mxGeometry x="825" y="198" width="40" height="30" as="geometry" />
        </mxCell>
        <mxCell id="G6ERgnJ3noraj0WCy2LJ-111" style="edgeStyle=orthogonalEdgeStyle;rounded=0;orthogonalLoop=1;jettySize=auto;html=1;" parent="G6ERgnJ3noraj0WCy2LJ-1" source="G6ERgnJ3noraj0WCy2LJ-85" target="G6ERgnJ3noraj0WCy2LJ-110" edge="1">
          <mxGeometry relative="1" as="geometry" />
        </mxCell>
        <mxCell id="G6ERgnJ3noraj0WCy2LJ-85" value="No action" style="whiteSpace=wrap;html=1;fillColor=#bac8d3;strokeColor=#23445d;rounded=1;" parent="G6ERgnJ3noraj0WCy2LJ-1" vertex="1">
          <mxGeometry x="685" y="310" width="120" height="60" as="geometry" />
        </mxCell>
        <mxCell id="G6ERgnJ3noraj0WCy2LJ-112" value="Next instruction step" style="whiteSpace=wrap;html=1;fillColor=#bac8d3;strokeColor=#23445d;rounded=1;" parent="G6ERgnJ3noraj0WCy2LJ-1" vertex="1">
          <mxGeometry x="685" y="420" width="120" height="60" as="geometry" />
        </mxCell>
        <mxCell id="G6ERgnJ3noraj0WCy2LJ-89" value="Yes" style="text;html=1;align=center;verticalAlign=middle;resizable=0;points=[];autosize=1;strokeColor=none;fillColor=none;" parent="G6ERgnJ3noraj0WCy2LJ-1" vertex="1">
          <mxGeometry x="745" y="268" width="40" height="30" as="geometry" />
        </mxCell>
        <mxCell id="G6ERgnJ3noraj0WCy2LJ-116" style="edgeStyle=orthogonalEdgeStyle;rounded=0;orthogonalLoop=1;jettySize=auto;html=1;entryX=0;entryY=0.5;entryDx=0;entryDy=0;exitX=0.499;exitY=0.976;exitDx=0;exitDy=0;exitPerimeter=0;" parent="G6ERgnJ3noraj0WCy2LJ-1" source="G6ERgnJ3noraj0WCy2LJ-110" target="G6ERgnJ3noraj0WCy2LJ-112" edge="1">
          <mxGeometry relative="1" as="geometry">
            <mxPoint x="600" y="470" as="targetPoint" />
            <Array as="points">
              <mxPoint x="579" y="405" />
              <mxPoint x="579" y="450" />
            </Array>
          </mxGeometry>
        </mxCell>
        <mxCell id="G6ERgnJ3noraj0WCy2LJ-110" value="Time left?" style="html=1;whiteSpace=wrap;aspect=fixed;shape=isoRectangle;" parent="G6ERgnJ3noraj0WCy2LJ-1" vertex="1">
          <mxGeometry x="504.5" y="295" width="150" height="90" as="geometry" />
        </mxCell>
        <mxCell id="G6ERgnJ3noraj0WCy2LJ-113" style="edgeStyle=orthogonalEdgeStyle;rounded=0;orthogonalLoop=1;jettySize=auto;html=1;entryX=0.021;entryY=0.502;entryDx=0;entryDy=0;entryPerimeter=0;exitX=0.505;exitY=0.033;exitDx=0;exitDy=0;exitPerimeter=0;" parent="G6ERgnJ3noraj0WCy2LJ-1" source="G6ERgnJ3noraj0WCy2LJ-110" target="G6ERgnJ3noraj0WCy2LJ-79" edge="1">
          <mxGeometry relative="1" as="geometry">
            <mxPoint x="580" y="290" as="sourcePoint" />
            <Array as="points">
              <mxPoint x="580" y="225" />
            </Array>
          </mxGeometry>
        </mxCell>
        <mxCell id="G6ERgnJ3noraj0WCy2LJ-114" value="Yes" style="text;html=1;align=center;verticalAlign=middle;resizable=0;points=[];autosize=1;strokeColor=none;fillColor=none;" parent="G6ERgnJ3noraj0WCy2LJ-1" vertex="1">
          <mxGeometry x="580" y="250" width="40" height="30" as="geometry" />
        </mxCell>
        <mxCell id="G6ERgnJ3noraj0WCy2LJ-117" style="edgeStyle=orthogonalEdgeStyle;rounded=0;orthogonalLoop=1;jettySize=auto;html=1;" parent="G6ERgnJ3noraj0WCy2LJ-1" source="G6ERgnJ3noraj0WCy2LJ-118" target="G6ERgnJ3noraj0WCy2LJ-121" edge="1">
          <mxGeometry relative="1" as="geometry" />
        </mxCell>
        <mxCell id="G6ERgnJ3noraj0WCy2LJ-118" value="Smart Pan" style="whiteSpace=wrap;html=1;fillColor=#bac8d3;strokeColor=#23445d;rounded=1;" parent="G6ERgnJ3noraj0WCy2LJ-1" vertex="1">
          <mxGeometry x="680.5" y="510" width="120" height="60" as="geometry" />
        </mxCell>
        <mxCell id="G6ERgnJ3noraj0WCy2LJ-119" style="edgeStyle=orthogonalEdgeStyle;rounded=0;orthogonalLoop=1;jettySize=auto;html=1;" parent="G6ERgnJ3noraj0WCy2LJ-1" source="G6ERgnJ3noraj0WCy2LJ-121" target="G6ERgnJ3noraj0WCy2LJ-122" edge="1">
          <mxGeometry relative="1" as="geometry" />
        </mxCell>
        <mxCell id="G6ERgnJ3noraj0WCy2LJ-120" style="edgeStyle=orthogonalEdgeStyle;rounded=0;orthogonalLoop=1;jettySize=auto;html=1;" parent="G6ERgnJ3noraj0WCy2LJ-1" source="G6ERgnJ3noraj0WCy2LJ-121" target="G6ERgnJ3noraj0WCy2LJ-125" edge="1">
          <mxGeometry relative="1" as="geometry" />
        </mxCell>
        <mxCell id="G6ERgnJ3noraj0WCy2LJ-121" value="Garlic too cooked? &lt;br&gt;(smell)" style="html=1;whiteSpace=wrap;aspect=fixed;shape=isoRectangle;" parent="G6ERgnJ3noraj0WCy2LJ-1" vertex="1">
          <mxGeometry x="665.5" y="620" width="150" height="90" as="geometry" />
        </mxCell>
        <mxCell id="G6ERgnJ3noraj0WCy2LJ-122" value="Stove adjusting the temperature" style="whiteSpace=wrap;html=1;fillColor=#bac8d3;strokeColor=#23445d;rounded=1;" parent="G6ERgnJ3noraj0WCy2LJ-1" vertex="1">
          <mxGeometry x="890.5" y="635" width="120" height="60" as="geometry" />
        </mxCell>
        <mxCell id="G6ERgnJ3noraj0WCy2LJ-123" value="Yes" style="text;html=1;align=center;verticalAlign=middle;resizable=0;points=[];autosize=1;strokeColor=none;fillColor=none;" parent="G6ERgnJ3noraj0WCy2LJ-1" vertex="1">
          <mxGeometry x="820.5" y="638" width="40" height="30" as="geometry" />
        </mxCell>
        <mxCell id="G6ERgnJ3noraj0WCy2LJ-124" style="edgeStyle=orthogonalEdgeStyle;rounded=0;orthogonalLoop=1;jettySize=auto;html=1;" parent="G6ERgnJ3noraj0WCy2LJ-1" source="G6ERgnJ3noraj0WCy2LJ-125" target="G6ERgnJ3noraj0WCy2LJ-129" edge="1">
          <mxGeometry relative="1" as="geometry" />
        </mxCell>
        <mxCell id="G6ERgnJ3noraj0WCy2LJ-125" value="No action" style="whiteSpace=wrap;html=1;fillColor=#bac8d3;strokeColor=#23445d;rounded=1;" parent="G6ERgnJ3noraj0WCy2LJ-1" vertex="1">
          <mxGeometry x="680.5" y="750" width="120" height="60" as="geometry" />
        </mxCell>
        <mxCell id="G6ERgnJ3noraj0WCy2LJ-126" value="Next instruction step" style="whiteSpace=wrap;html=1;fillColor=#bac8d3;strokeColor=#23445d;rounded=1;" parent="G6ERgnJ3noraj0WCy2LJ-1" vertex="1">
          <mxGeometry x="680.5" y="860" width="120" height="60" as="geometry" />
        </mxCell>
        <mxCell id="G6ERgnJ3noraj0WCy2LJ-127" value="No" style="text;html=1;align=center;verticalAlign=middle;resizable=0;points=[];autosize=1;strokeColor=none;fillColor=none;" parent="G6ERgnJ3noraj0WCy2LJ-1" vertex="1">
          <mxGeometry x="740.5" y="708" width="40" height="30" as="geometry" />
        </mxCell>
        <mxCell id="G6ERgnJ3noraj0WCy2LJ-128" style="edgeStyle=orthogonalEdgeStyle;rounded=0;orthogonalLoop=1;jettySize=auto;html=1;entryX=0;entryY=0.5;entryDx=0;entryDy=0;exitX=0.499;exitY=0.976;exitDx=0;exitDy=0;exitPerimeter=0;" parent="G6ERgnJ3noraj0WCy2LJ-1" source="G6ERgnJ3noraj0WCy2LJ-129" target="G6ERgnJ3noraj0WCy2LJ-126" edge="1">
          <mxGeometry relative="1" as="geometry">
            <mxPoint x="595.5" y="910" as="targetPoint" />
            <Array as="points">
              <mxPoint x="574.5" y="845" />
              <mxPoint x="574.5" y="890" />
            </Array>
          </mxGeometry>
        </mxCell>
        <mxCell id="G6ERgnJ3noraj0WCy2LJ-129" value="Time left?" style="html=1;whiteSpace=wrap;aspect=fixed;shape=isoRectangle;" parent="G6ERgnJ3noraj0WCy2LJ-1" vertex="1">
          <mxGeometry x="500" y="735" width="150" height="90" as="geometry" />
        </mxCell>
        <mxCell id="G6ERgnJ3noraj0WCy2LJ-130" style="edgeStyle=orthogonalEdgeStyle;rounded=0;orthogonalLoop=1;jettySize=auto;html=1;entryX=0.021;entryY=0.502;entryDx=0;entryDy=0;entryPerimeter=0;exitX=0.505;exitY=0.033;exitDx=0;exitDy=0;exitPerimeter=0;" parent="G6ERgnJ3noraj0WCy2LJ-1" source="G6ERgnJ3noraj0WCy2LJ-129" target="G6ERgnJ3noraj0WCy2LJ-121" edge="1">
          <mxGeometry relative="1" as="geometry">
            <mxPoint x="575.5" y="730" as="sourcePoint" />
            <Array as="points">
              <mxPoint x="575.5" y="665" />
            </Array>
          </mxGeometry>
        </mxCell>
        <mxCell id="G6ERgnJ3noraj0WCy2LJ-131" value="Yes" style="text;html=1;align=center;verticalAlign=middle;resizable=0;points=[];autosize=1;strokeColor=none;fillColor=none;" parent="G6ERgnJ3noraj0WCy2LJ-1" vertex="1">
          <mxGeometry x="575.5" y="690" width="40" height="30" as="geometry" />
        </mxCell>
        <mxCell id="G6ERgnJ3noraj0WCy2LJ-167" value="No" style="text;html=1;align=center;verticalAlign=middle;resizable=0;points=[];autosize=1;strokeColor=none;fillColor=none;" parent="G6ERgnJ3noraj0WCy2LJ-1" vertex="1">
          <mxGeometry x="575.5" y="840" width="40" height="30" as="geometry" />
        </mxCell>
        <mxCell id="G6ERgnJ3noraj0WCy2LJ-168" value="No" style="text;html=1;align=center;verticalAlign=middle;resizable=0;points=[];autosize=1;strokeColor=none;fillColor=none;" parent="G6ERgnJ3noraj0WCy2LJ-1" vertex="1">
          <mxGeometry x="580" y="390" width="40" height="30" as="geometry" />
        </mxCell>
        <mxCell id="JVq306A_YzXoWOVUy9Fq-1" value="&lt;b&gt;Step 1&lt;/b&gt;" style="text;html=1;align=center;verticalAlign=middle;resizable=0;points=[];autosize=1;strokeColor=none;fillColor=none;" vertex="1" parent="G6ERgnJ3noraj0WCy2LJ-1">
          <mxGeometry x="320" y="510" width="60" height="30" as="geometry" />
        </mxCell>
        <mxCell id="JVq306A_YzXoWOVUy9Fq-2" style="edgeStyle=orthogonalEdgeStyle;rounded=0;orthogonalLoop=1;jettySize=auto;html=1;" edge="1" parent="G6ERgnJ3noraj0WCy2LJ-1" source="JVq306A_YzXoWOVUy9Fq-3" target="JVq306A_YzXoWOVUy9Fq-6">
          <mxGeometry relative="1" as="geometry" />
        </mxCell>
        <mxCell id="JVq306A_YzXoWOVUy9Fq-3" value="Oven" style="whiteSpace=wrap;html=1;fillColor=#bac8d3;strokeColor=#23445d;rounded=1;" vertex="1" parent="G6ERgnJ3noraj0WCy2LJ-1">
          <mxGeometry x="170.5" y="510" width="120" height="60" as="geometry" />
        </mxCell>
        <mxCell id="JVq306A_YzXoWOVUy9Fq-4" style="edgeStyle=orthogonalEdgeStyle;rounded=0;orthogonalLoop=1;jettySize=auto;html=1;" edge="1" parent="G6ERgnJ3noraj0WCy2LJ-1" source="JVq306A_YzXoWOVUy9Fq-6">
          <mxGeometry relative="1" as="geometry">
            <mxPoint x="370" y="665" as="targetPoint" />
          </mxGeometry>
        </mxCell>
        <mxCell id="JVq306A_YzXoWOVUy9Fq-5" style="edgeStyle=orthogonalEdgeStyle;rounded=0;orthogonalLoop=1;jettySize=auto;html=1;" edge="1" parent="G6ERgnJ3noraj0WCy2LJ-1" source="JVq306A_YzXoWOVUy9Fq-6" target="JVq306A_YzXoWOVUy9Fq-10">
          <mxGeometry relative="1" as="geometry" />
        </mxCell>
        <mxCell id="JVq306A_YzXoWOVUy9Fq-6" value="Preheat?" style="html=1;whiteSpace=wrap;aspect=fixed;shape=isoRectangle;" vertex="1" parent="G6ERgnJ3noraj0WCy2LJ-1">
          <mxGeometry x="155.5" y="620" width="150" height="90" as="geometry" />
        </mxCell>
        <mxCell id="JVq306A_YzXoWOVUy9Fq-8" value="Yes" style="text;html=1;align=center;verticalAlign=middle;resizable=0;points=[];autosize=1;strokeColor=none;fillColor=none;" vertex="1" parent="G6ERgnJ3noraj0WCy2LJ-1">
          <mxGeometry x="310.5" y="638" width="40" height="30" as="geometry" />
        </mxCell>
        <mxCell id="JVq306A_YzXoWOVUy9Fq-20" style="edgeStyle=orthogonalEdgeStyle;rounded=0;orthogonalLoop=1;jettySize=auto;html=1;" edge="1" parent="G6ERgnJ3noraj0WCy2LJ-1" source="JVq306A_YzXoWOVUy9Fq-10" target="JVq306A_YzXoWOVUy9Fq-11">
          <mxGeometry relative="1" as="geometry" />
        </mxCell>
        <mxCell id="JVq306A_YzXoWOVUy9Fq-10" value="No action" style="whiteSpace=wrap;html=1;fillColor=#bac8d3;strokeColor=#23445d;rounded=1;" vertex="1" parent="G6ERgnJ3noraj0WCy2LJ-1">
          <mxGeometry x="170.5" y="750" width="120" height="60" as="geometry" />
        </mxCell>
        <mxCell id="JVq306A_YzXoWOVUy9Fq-12" value="No" style="text;html=1;align=center;verticalAlign=middle;resizable=0;points=[];autosize=1;strokeColor=none;fillColor=none;" vertex="1" parent="G6ERgnJ3noraj0WCy2LJ-1">
          <mxGeometry x="230.5" y="708" width="40" height="30" as="geometry" />
        </mxCell>
        <mxCell id="JVq306A_YzXoWOVUy9Fq-18" value="Temperature &lt;br&gt;reached 400°F?" style="html=1;whiteSpace=wrap;aspect=fixed;shape=isoRectangle;" vertex="1" parent="G6ERgnJ3noraj0WCy2LJ-1">
          <mxGeometry x="370.5" y="620" width="150" height="90" as="geometry" />
        </mxCell>
        <mxCell id="JVq306A_YzXoWOVUy9Fq-22" style="edgeStyle=orthogonalEdgeStyle;rounded=0;orthogonalLoop=1;jettySize=auto;html=1;entryX=1;entryY=0.5;entryDx=0;entryDy=0;" edge="1" parent="G6ERgnJ3noraj0WCy2LJ-1" source="JVq306A_YzXoWOVUy9Fq-18" target="JVq306A_YzXoWOVUy9Fq-11">
          <mxGeometry relative="1" as="geometry">
            <mxPoint x="445.5599999999995" y="789.98" as="targetPoint" />
            <Array as="points">
              <mxPoint x="446" y="890" />
            </Array>
          </mxGeometry>
        </mxCell>
        <mxCell id="JVq306A_YzXoWOVUy9Fq-23" value="Yes" style="text;html=1;align=center;verticalAlign=middle;resizable=0;points=[];autosize=1;strokeColor=none;fillColor=none;" vertex="1" parent="G6ERgnJ3noraj0WCy2LJ-1">
          <mxGeometry x="400" y="765" width="40" height="30" as="geometry" />
        </mxCell>
        <mxCell id="JVq306A_YzXoWOVUy9Fq-24" style="edgeStyle=orthogonalEdgeStyle;rounded=0;orthogonalLoop=1;jettySize=auto;html=1;entryX=0.977;entryY=0.494;entryDx=0;entryDy=0;entryPerimeter=0;" edge="1" parent="G6ERgnJ3noraj0WCy2LJ-1" source="JVq306A_YzXoWOVUy9Fq-18" target="JVq306A_YzXoWOVUy9Fq-18">
          <mxGeometry relative="1" as="geometry">
            <Array as="points">
              <mxPoint x="446" y="600" />
              <mxPoint x="541" y="600" />
              <mxPoint x="541" y="664" />
            </Array>
          </mxGeometry>
        </mxCell>
        <mxCell id="JVq306A_YzXoWOVUy9Fq-25" value="No" style="text;html=1;align=center;verticalAlign=middle;resizable=0;points=[];autosize=1;strokeColor=none;fillColor=none;" vertex="1" parent="G6ERgnJ3noraj0WCy2LJ-1">
          <mxGeometry x="470" y="570" width="40" height="30" as="geometry" />
        </mxCell>
        <mxCell id="JVq306A_YzXoWOVUy9Fq-11" value="Next instruction step" style="whiteSpace=wrap;html=1;fillColor=#bac8d3;strokeColor=#23445d;rounded=1;" vertex="1" parent="G6ERgnJ3noraj0WCy2LJ-1">
          <mxGeometry x="170.5" y="860" width="120" height="60" as="geometry" />
        </mxCell>
        <mxCell id="JVq306A_YzXoWOVUy9Fq-28" value="Interaction&lt;br&gt;User and ChefMate" style="text;html=1;align=center;verticalAlign=middle;resizable=0;points=[];autosize=1;strokeColor=none;fillColor=none;" vertex="1" parent="G6ERgnJ3noraj0WCy2LJ-1">
          <mxGeometry x="110" y="343" width="130" height="40" as="geometry" />
        </mxCell>
        <mxCell id="G6ERgnJ3noraj0WCy2LJ-2" value="&lt;font style=&quot;font-size: 15px;&quot;&gt;Real-time Adjustments&lt;/font&gt;" style="swimlane;html=1;startSize=30;rounded=1;fillColor=#E0DDFF;strokeColor=#b46504;" parent="1c1d494c118603dd-1" vertex="1">
          <mxGeometry x="2410" y="40" width="750" height="960" as="geometry" />
        </mxCell>
        <mxCell id="G6ERgnJ3noraj0WCy2LJ-133" value="&lt;b&gt;Step X2&lt;/b&gt;" style="text;html=1;align=center;verticalAlign=middle;resizable=0;points=[];autosize=1;strokeColor=none;fillColor=none;" parent="G6ERgnJ3noraj0WCy2LJ-2" vertex="1">
          <mxGeometry x="215.5" y="90" width="70" height="30" as="geometry" />
        </mxCell>
        <mxCell id="G6ERgnJ3noraj0WCy2LJ-169" style="edgeStyle=orthogonalEdgeStyle;rounded=0;orthogonalLoop=1;jettySize=auto;html=1;" parent="G6ERgnJ3noraj0WCy2LJ-2" source="G6ERgnJ3noraj0WCy2LJ-136" target="G6ERgnJ3noraj0WCy2LJ-153" edge="1">
          <mxGeometry relative="1" as="geometry" />
        </mxCell>
        <mxCell id="G6ERgnJ3noraj0WCy2LJ-136" value="ChefMate Timer" style="whiteSpace=wrap;html=1;fillColor=#E0DDFF;strokeColor=#23445d;rounded=1;" parent="G6ERgnJ3noraj0WCy2LJ-2" vertex="1">
          <mxGeometry x="50" y="90" width="120" height="60" as="geometry" />
        </mxCell>
        <mxCell id="JVq306A_YzXoWOVUy9Fq-30" style="edgeStyle=orthogonalEdgeStyle;rounded=0;orthogonalLoop=1;jettySize=auto;html=1;" edge="1" parent="G6ERgnJ3noraj0WCy2LJ-2" source="G6ERgnJ3noraj0WCy2LJ-153" target="JVq306A_YzXoWOVUy9Fq-29">
          <mxGeometry relative="1" as="geometry" />
        </mxCell>
        <mxCell id="G6ERgnJ3noraj0WCy2LJ-153" value="Smart Pan" style="whiteSpace=wrap;html=1;fillColor=#E0DDFF;strokeColor=#23445d;rounded=1;" parent="G6ERgnJ3noraj0WCy2LJ-2" vertex="1">
          <mxGeometry x="350.5" y="90" width="120" height="60" as="geometry" />
        </mxCell>
        <mxCell id="G6ERgnJ3noraj0WCy2LJ-154" style="edgeStyle=orthogonalEdgeStyle;rounded=0;orthogonalLoop=1;jettySize=auto;html=1;" parent="G6ERgnJ3noraj0WCy2LJ-2" source="G6ERgnJ3noraj0WCy2LJ-156" target="G6ERgnJ3noraj0WCy2LJ-157" edge="1">
          <mxGeometry relative="1" as="geometry" />
        </mxCell>
        <mxCell id="G6ERgnJ3noraj0WCy2LJ-155" style="edgeStyle=orthogonalEdgeStyle;rounded=0;orthogonalLoop=1;jettySize=auto;html=1;entryX=0.5;entryY=1;entryDx=0;entryDy=0;" parent="G6ERgnJ3noraj0WCy2LJ-2" source="G6ERgnJ3noraj0WCy2LJ-156" target="JVq306A_YzXoWOVUy9Fq-38" edge="1">
          <mxGeometry relative="1" as="geometry">
            <mxPoint x="410.5" y="590" as="targetPoint" />
            <Array as="points">
              <mxPoint x="410" y="590" />
              <mxPoint x="160" y="590" />
            </Array>
          </mxGeometry>
        </mxCell>
        <mxCell id="G6ERgnJ3noraj0WCy2LJ-156" value="Spicy enough? &lt;br&gt;(taste)" style="html=1;whiteSpace=wrap;aspect=fixed;shape=isoRectangle;" parent="G6ERgnJ3noraj0WCy2LJ-2" vertex="1">
          <mxGeometry x="335.5" y="460" width="150" height="90" as="geometry" />
        </mxCell>
        <mxCell id="JVq306A_YzXoWOVUy9Fq-33" style="edgeStyle=orthogonalEdgeStyle;rounded=0;orthogonalLoop=1;jettySize=auto;html=1;" edge="1" parent="G6ERgnJ3noraj0WCy2LJ-2" source="G6ERgnJ3noraj0WCy2LJ-157" target="G6ERgnJ3noraj0WCy2LJ-171">
          <mxGeometry relative="1" as="geometry" />
        </mxCell>
        <mxCell id="G6ERgnJ3noraj0WCy2LJ-157" value="No action" style="whiteSpace=wrap;html=1;fillColor=#E0DDFF;strokeColor=#23445d;rounded=1;" parent="G6ERgnJ3noraj0WCy2LJ-2" vertex="1">
          <mxGeometry x="560.5" y="475" width="120" height="60" as="geometry" />
        </mxCell>
        <mxCell id="G6ERgnJ3noraj0WCy2LJ-158" value="Yes" style="text;html=1;align=center;verticalAlign=middle;resizable=0;points=[];autosize=1;strokeColor=none;fillColor=none;" parent="G6ERgnJ3noraj0WCy2LJ-2" vertex="1">
          <mxGeometry x="490.5" y="478" width="40" height="30" as="geometry" />
        </mxCell>
        <mxCell id="G6ERgnJ3noraj0WCy2LJ-162" value="No" style="text;html=1;align=center;verticalAlign=middle;resizable=0;points=[];autosize=1;strokeColor=none;fillColor=none;" parent="G6ERgnJ3noraj0WCy2LJ-2" vertex="1">
          <mxGeometry x="410.5" y="560" width="40" height="30" as="geometry" />
        </mxCell>
        <mxCell id="G6ERgnJ3noraj0WCy2LJ-171" value="Next instruction step" style="whiteSpace=wrap;html=1;fillColor=#E0DDFF;strokeColor=#23445d;rounded=1;" parent="G6ERgnJ3noraj0WCy2LJ-2" vertex="1">
          <mxGeometry x="560.5" y="590" width="120" height="60" as="geometry" />
        </mxCell>
        <mxCell id="JVq306A_YzXoWOVUy9Fq-39" style="edgeStyle=orthogonalEdgeStyle;rounded=0;orthogonalLoop=1;jettySize=auto;html=1;exitX=0;exitY=0.5;exitDx=0;exitDy=0;entryX=0.5;entryY=0;entryDx=0;entryDy=0;" edge="1" parent="G6ERgnJ3noraj0WCy2LJ-2" source="JVq306A_YzXoWOVUy9Fq-29" target="JVq306A_YzXoWOVUy9Fq-38">
          <mxGeometry relative="1" as="geometry" />
        </mxCell>
        <mxCell id="JVq306A_YzXoWOVUy9Fq-29" value="Spice level is below the user&#39;s preference" style="whiteSpace=wrap;html=1;fillColor=#E0DDFF;strokeColor=#23445d;rounded=1;" vertex="1" parent="G6ERgnJ3noraj0WCy2LJ-2">
          <mxGeometry x="350.5" y="210" width="120" height="60" as="geometry" />
        </mxCell>
        <mxCell id="JVq306A_YzXoWOVUy9Fq-44" style="edgeStyle=orthogonalEdgeStyle;rounded=0;orthogonalLoop=1;jettySize=auto;html=1;entryX=0;entryY=0.5;entryDx=0;entryDy=0;" edge="1" parent="G6ERgnJ3noraj0WCy2LJ-2" source="JVq306A_YzXoWOVUy9Fq-38" target="JVq306A_YzXoWOVUy9Fq-40">
          <mxGeometry relative="1" as="geometry" />
        </mxCell>
        <mxCell id="JVq306A_YzXoWOVUy9Fq-38" value="Prompts the user to add more chilli" style="whiteSpace=wrap;html=1;fillColor=#E0DDFF;strokeColor=#23445d;rounded=1;" vertex="1" parent="G6ERgnJ3noraj0WCy2LJ-2">
          <mxGeometry x="100" y="330" width="120" height="60" as="geometry" />
        </mxCell>
        <mxCell id="JVq306A_YzXoWOVUy9Fq-42" style="edgeStyle=orthogonalEdgeStyle;rounded=0;orthogonalLoop=1;jettySize=auto;html=1;" edge="1" parent="G6ERgnJ3noraj0WCy2LJ-2" source="JVq306A_YzXoWOVUy9Fq-40" target="G6ERgnJ3noraj0WCy2LJ-156">
          <mxGeometry relative="1" as="geometry" />
        </mxCell>
        <mxCell id="JVq306A_YzXoWOVUy9Fq-40" value="Check spice level" style="whiteSpace=wrap;html=1;fillColor=#E0DDFF;strokeColor=#23445d;rounded=1;" vertex="1" parent="G6ERgnJ3noraj0WCy2LJ-2">
          <mxGeometry x="350.5" y="330" width="120" height="60" as="geometry" />
        </mxCell>
        <mxCell id="G6ERgnJ3noraj0WCy2LJ-3" value="&lt;font style=&quot;font-size: 15px;&quot;&gt;Completion and Feedback&lt;/font&gt;" style="swimlane;html=1;startSize=30;rounded=1;" parent="1c1d494c118603dd-1" vertex="1">
          <mxGeometry x="3160" y="40" width="670" height="960" as="geometry" />
        </mxCell>
        <mxCell id="G6ERgnJ3noraj0WCy2LJ-174" style="edgeStyle=orthogonalEdgeStyle;rounded=0;orthogonalLoop=1;jettySize=auto;html=1;entryX=0;entryY=0.5;entryDx=0;entryDy=0;" parent="G6ERgnJ3noraj0WCy2LJ-3" target="G6ERgnJ3noraj0WCy2LJ-175" edge="1">
          <mxGeometry relative="1" as="geometry">
            <mxPoint x="310" y="120.28571428571445" as="targetPoint" />
            <mxPoint x="180" y="120" as="sourcePoint" />
          </mxGeometry>
        </mxCell>
        <mxCell id="G6ERgnJ3noraj0WCy2LJ-172" value="ChefMate asks for Feedback" style="whiteSpace=wrap;html=1;fillColor=#b0e3e6;strokeColor=#0e8088;rounded=1;" parent="G6ERgnJ3noraj0WCy2LJ-3" vertex="1">
          <mxGeometry x="60" y="90" width="120" height="60" as="geometry" />
        </mxCell>
        <mxCell id="G6ERgnJ3noraj0WCy2LJ-177" style="edgeStyle=orthogonalEdgeStyle;rounded=0;orthogonalLoop=1;jettySize=auto;html=1;" parent="G6ERgnJ3noraj0WCy2LJ-3" source="G6ERgnJ3noraj0WCy2LJ-175" target="G6ERgnJ3noraj0WCy2LJ-176" edge="1">
          <mxGeometry relative="1" as="geometry" />
        </mxCell>
        <mxCell id="G6ERgnJ3noraj0WCy2LJ-175" value="Prompts the user to rate the meal" style="whiteSpace=wrap;html=1;fillColor=#b0e3e6;strokeColor=#0e8088;rounded=1;" parent="G6ERgnJ3noraj0WCy2LJ-3" vertex="1">
          <mxGeometry x="290" y="90" width="120" height="60" as="geometry" />
        </mxCell>
        <mxCell id="G6ERgnJ3noraj0WCy2LJ-190" style="edgeStyle=orthogonalEdgeStyle;rounded=0;orthogonalLoop=1;jettySize=auto;html=1;" parent="G6ERgnJ3noraj0WCy2LJ-3" source="G6ERgnJ3noraj0WCy2LJ-176" target="G6ERgnJ3noraj0WCy2LJ-180" edge="1">
          <mxGeometry relative="1" as="geometry" />
        </mxCell>
        <mxCell id="G6ERgnJ3noraj0WCy2LJ-192" style="edgeStyle=orthogonalEdgeStyle;rounded=0;orthogonalLoop=1;jettySize=auto;html=1;entryX=0;entryY=0.5;entryDx=0;entryDy=0;" parent="G6ERgnJ3noraj0WCy2LJ-3" source="G6ERgnJ3noraj0WCy2LJ-176" target="G6ERgnJ3noraj0WCy2LJ-178" edge="1">
          <mxGeometry relative="1" as="geometry" />
        </mxCell>
        <mxCell id="G6ERgnJ3noraj0WCy2LJ-176" value="Not spicy enough?" style="html=1;whiteSpace=wrap;aspect=fixed;shape=isoRectangle;" parent="G6ERgnJ3noraj0WCy2LJ-3" vertex="1">
          <mxGeometry x="275" y="220" width="150" height="90" as="geometry" />
        </mxCell>
        <mxCell id="G6ERgnJ3noraj0WCy2LJ-178" value="Save information" style="whiteSpace=wrap;html=1;fillColor=#b0e3e6;strokeColor=#0e8088;rounded=1;" parent="G6ERgnJ3noraj0WCy2LJ-3" vertex="1">
          <mxGeometry x="530" y="375" width="120" height="60" as="geometry" />
        </mxCell>
        <mxCell id="G6ERgnJ3noraj0WCy2LJ-191" style="edgeStyle=orthogonalEdgeStyle;rounded=0;orthogonalLoop=1;jettySize=auto;html=1;" parent="G6ERgnJ3noraj0WCy2LJ-3" source="G6ERgnJ3noraj0WCy2LJ-180" target="G6ERgnJ3noraj0WCy2LJ-189" edge="1">
          <mxGeometry relative="1" as="geometry" />
        </mxCell>
        <mxCell id="G6ERgnJ3noraj0WCy2LJ-193" style="edgeStyle=orthogonalEdgeStyle;rounded=0;orthogonalLoop=1;jettySize=auto;html=1;entryX=0;entryY=0.5;entryDx=0;entryDy=0;" parent="G6ERgnJ3noraj0WCy2LJ-3" source="G6ERgnJ3noraj0WCy2LJ-180" target="G6ERgnJ3noraj0WCy2LJ-178" edge="1">
          <mxGeometry relative="1" as="geometry" />
        </mxCell>
        <mxCell id="G6ERgnJ3noraj0WCy2LJ-180" value="Rate the taste?" style="html=1;whiteSpace=wrap;aspect=fixed;shape=isoRectangle;" parent="G6ERgnJ3noraj0WCy2LJ-3" vertex="1">
          <mxGeometry x="275" y="360" width="150" height="90" as="geometry" />
        </mxCell>
        <mxCell id="G6ERgnJ3noraj0WCy2LJ-194" style="edgeStyle=orthogonalEdgeStyle;rounded=0;orthogonalLoop=1;jettySize=auto;html=1;entryX=0;entryY=0.5;entryDx=0;entryDy=0;" parent="G6ERgnJ3noraj0WCy2LJ-3" source="G6ERgnJ3noraj0WCy2LJ-189" target="G6ERgnJ3noraj0WCy2LJ-178" edge="1">
          <mxGeometry relative="1" as="geometry" />
        </mxCell>
        <mxCell id="G6ERgnJ3noraj0WCy2LJ-189" value="Rate the aroma?" style="html=1;whiteSpace=wrap;aspect=fixed;shape=isoRectangle;" parent="G6ERgnJ3noraj0WCy2LJ-3" vertex="1">
          <mxGeometry x="275" y="510" width="150" height="90" as="geometry" />
        </mxCell>
      </root>
    </mxGraphModel>
  </diagram>
</mxfile>
